<svg width="56" height="56" viewBox="0 0 56 56" fill="none" xmlns="http://www.w3.org/2000/svg">
<rect width="56" height="56" rx="28" fill="#E0EAFF"/>
<path d="M17.5 32.6665V22.3998C17.5 21.093 17.5 20.4397 17.7543 19.9405C17.978 19.5015 18.335 19.1445 18.774 18.9208C19.2732 18.6665 19.9266 18.6665 21.2333 18.6665H34.7667C36.0735 18.6665 36.7269 18.6665 37.226 18.9208C37.665 19.1445 38.022 19.5015 38.2457 19.9405C38.5 20.4397 38.5 21.093 38.5 22.3998V32.6665H32.2732C31.9879 32.6665 31.8452 32.6665 31.7109 32.6987C31.5919 32.7273 31.4781 32.7745 31.3737 32.8384C31.2559 32.9106 31.1551 33.0115 30.9533 33.2132L30.8801 33.2864C30.6783 33.4882 30.5774 33.5891 30.4597 33.6613C30.3553 33.7252 30.2415 33.7724 30.1224 33.8009C29.9882 33.8332 29.8455 33.8332 29.5601 33.8332H26.4399C26.1545 33.8332 26.0118 33.8332 25.8776 33.8009C25.7585 33.7724 25.6447 33.7252 25.5403 33.6613C25.4226 33.5891 25.3217 33.4882 25.1199 33.2864L25.0467 33.2132C24.845 33.0115 24.7441 32.9106 24.6263 32.8384C24.522 32.7745 24.4082 32.7273 24.2891 32.6987C24.1548 32.6665 24.0122 32.6665 23.7268 32.6665H17.5ZM17.5 32.6665C16.8557 32.6665 16.3333 33.1888 16.3333 33.8332V34.2221C16.3333 34.9454 16.3333 35.307 16.4128 35.6037C16.6286 36.409 17.2576 37.0379 18.0628 37.2537C18.3595 37.3332 18.7211 37.3332 19.4445 37.3332H36.5556C37.2789 37.3332 37.6405 37.3332 37.9373 37.2537C38.7425 37.0379 39.3714 36.409 39.5872 35.6037C39.6667 35.307 39.6667 34.9454 39.6667 34.2221C39.6667 33.8604 39.6667 33.6796 39.6269 33.5312C39.519 33.1286 39.2046 32.8141 38.802 32.7063C38.6536 32.6665 38.4728 32.6665 38.1111 32.6665H37.3333" stroke="#444CE7" stroke-width="2.33333" stroke-linecap="round" stroke-linejoin="round"/>
</svg>
