<svg width="56" height="56" viewBox="0 0 56 56" fill="none" xmlns="http://www.w3.org/2000/svg">
<rect width="56" height="56" rx="28" fill="#E0EAFF"/>
<path d="M33.8333 35.5835L33.4403 36.9591C33.163 37.9297 33.0243 38.415 32.7413 38.7752C32.4914 39.0932 32.1632 39.3407 31.7889 39.4936C31.3648 39.6668 30.86 39.6668 29.8506 39.6668H26.1494C25.14 39.6668 24.6352 39.6668 24.2111 39.4936C23.8368 39.3407 23.5086 39.0932 23.2587 38.7752C22.9757 38.415 22.837 37.9297 22.5597 36.9591L22.1667 35.5835M33.8333 20.4168L33.4403 19.0412C33.163 18.0706 33.0243 17.5853 32.7413 17.2251C32.4914 16.9072 32.1632 16.6596 31.7889 16.5067C31.3648 16.3335 30.86 16.3335 29.8506 16.3335H26.1494C25.14 16.3335 24.6352 16.3335 24.2111 16.5067C23.8368 16.6596 23.5086 16.9072 23.2587 17.2251C22.9757 17.5853 22.837 18.0706 22.5597 19.0412L22.1667 20.4168M28 24.5002V28.0002L29.75 29.7502M24.15 35.5835H31.85C33.1568 35.5835 33.8102 35.5835 34.3093 35.3292C34.7484 35.1055 35.1053 34.7485 35.329 34.3095C35.5833 33.8103 35.5833 33.157 35.5833 31.8502V24.1502C35.5833 22.8434 35.5833 22.19 35.329 21.6909C35.1053 21.2518 34.7484 20.8949 34.3093 20.6711C33.8102 20.4168 33.1568 20.4168 31.85 20.4168H24.15C22.8432 20.4168 22.1898 20.4168 21.6907 20.6711C21.2516 20.8949 20.8947 21.2518 20.671 21.6909C20.4167 22.19 20.4167 22.8434 20.4167 24.1502V31.8502C20.4167 33.157 20.4167 33.8103 20.671 34.3095C20.8947 34.7485 21.2516 35.1055 21.6907 35.3292C22.1898 35.5835 22.8432 35.5835 24.15 35.5835Z" stroke="#444CE7" stroke-width="2.33333" stroke-linecap="round" stroke-linejoin="round"/>
</svg>
